<svg xmlns="http://www.w3.org/2000/svg" xml:space="preserve" id="Layer_3" x="0" y="0" viewBox="0 0 424 506.8"><style>.st0{fill:#005f60}</style><path d="M212 506.8h34.3L424 319.3l-40.4-3.7z" class="st0"/><path d="M218.3 136.8h34.3L424 319.3h-44.4zm-141.5 62 52.4-10L258.3 51.1h-36.6z" class="st0"/><path d="M213.6 321.9h39.5l-124.8-134-43-5.1z" class="st0"/><path d="M170.9 369.9h34.2l48-48-38.2-7zM176.6 0H212l46.3 51.1L224 54z" class="st0"/><linearGradient id="SVGID_1_" x1="112" x2="112" y1="512" y2="142.1" gradientTransform="matrix(1 0 0 -1 0 512)" gradientUnits="userSpaceOnUse"><stop offset="0" style="stop-color:#00615f"/><stop offset=".5" style="stop-color:#187320"/><stop offset="1" style="stop-color:#74bc20"/></linearGradient><path d="M176.6 0 0 188.8l170.9 181.1 47.4-48L94.9 188.8 224 51.1z" style="fill:url(#SVGID_1_)"/><linearGradient id="SVGID_2_" x1="276.75" x2="276.75" y1="375.2" y2="5.2" gradientTransform="matrix(1 0 0 -1 0 512)" gradientUnits="userSpaceOnUse"><stop offset="0" style="stop-color:#00615f"/><stop offset=".5" style="stop-color:#187320"/><stop offset="1" style="stop-color:#74bc20"/></linearGradient><path d="m170.9 187.9 47.4-51.1 171.4 182.5L212 506.8 163.8 457l130.7-137.7z" style="fill:url(#SVGID_2_)"/></svg>