<svg xmlns="http://www.w3.org/2000/svg" data-name="logosandtypes com" viewBox="0 0 150 150"><g data-name="Layer 3"><g data-name="Layer 2"><path d="M0 0h150v150H0z" data-name="Layer 3-2" style="fill:none"/></g></g><path d="M24.89 45.75c0-6.9-.4-13.63.11-20.29.54-7.09 6.16-12.03 13.32-12.28 24.08-.59 48.19-.24 72.27-.05 18.78.56 14.33 19.36 14.7 32.62zm67.14 93.45V73.63h33.42c.39 15.66.06 31.33.12 47-.02 4.19.04 8.43-2.52 12.14-2.72 3.94-6.39 6.29-11.19 6.4-6.51.14-13.03.03-19.82.03Zm-33.68-.24V73.39H24.93c-.39 15.66-.06 31.33-.12 47 .02 4.19-.04 8.43 2.52 12.14 2.72 3.94 6.39 6.29 11.19 6.4 6.51.14 13.03.03 19.82.03Z"/></svg>